<?xml version="1.0" encoding="UTF-8"?>
<svg version="1.1" xmlns="http://www.w3.org/2000/svg" width="512" height="512">
<path d="M0 0 C3.7873947 0.63915299 7.47389435 1.52362695 11.1875 2.5 C12.22269775 2.76699707 13.25789551 3.03399414 14.32446289 3.30908203 C61.4724924 15.81854482 104.63281328 41.10507881 130 84 C138 98.45980707 138 98.45980707 138 102 C138.66 102 139.32 102 140 102 C140.16363037 101.44602539 140.32726074 100.89205078 140.49584961 100.32128906 C142.25247796 94.68814878 144.51831961 89.79396361 147.5625 84.75 C148.00158691 84.01620117 148.44067383 83.28240234 148.89306641 82.52636719 C175.7719523 38.43463785 221.01053514 13.6438498 270.0625 1.625 C283.31715559 -1.4171766 283.31715559 -1.4171766 288 0 C292.67364983 3.60126075 292.67364983 3.60126075 293.43881226 6.88075256 C293.57791185 9.13045211 293.56248007 11.32923932 293.48828125 13.58203125 C293.48120651 14.39621017 293.47413177 15.2103891 293.46684265 16.04924011 C293.43895598 18.63794643 293.37623316 21.22445273 293.3125 23.8125 C293.2874095 25.57223428 293.26459764 27.33200263 293.24414062 29.09179688 C293.18914872 33.39537296 293.10291992 37.6973141 293 42 C293.99217529 41.73155273 294.98435059 41.46310547 296.0065918 41.18652344 C330.1310904 31.99172078 330.1310904 31.99172078 342.88671875 39.04296875 C349.51603142 43.4132053 353.90282491 49.9528431 358.62304688 56.20166016 C360.7493001 58.97860719 362.96532475 61.67414864 365.1875 64.375 C365.92355469 65.26960938 366.65960938 66.16421875 367.41796875 67.0859375 C367.94003906 67.71757813 368.46210938 68.34921875 369 69 C369.55945313 68.84015625 370.11890625 68.6803125 370.6953125 68.515625 C375.96169511 67.33738347 381.20754431 67.39124146 386.3125 69.125 C390.08952297 71.76013231 392.91624735 74.8324947 395 79 C395.09801059 80.81829511 395.13100803 82.64022308 395.13422108 84.46115494 C395.13867892 85.62837436 395.14313676 86.79559378 395.14772969 87.99818349 C395.14745315 89.93850741 395.14745315 89.93850741 395.14717102 91.91802979 C395.15046878 93.29728892 395.15419417 94.67654709 395.1583125 96.05580401 C395.16835061 99.85923032 395.1720522 103.66264084 395.17470181 107.46607852 C395.17859951 111.56299943 395.18817821 115.65990777 395.19691467 119.75682068 C395.21669426 129.65747054 395.2267472 139.55812145 395.23564246 149.45878613 C395.24002293 154.11822332 395.24539036 158.77765936 395.25063133 163.43709564 C395.26764513 178.92110076 395.28214005 194.40510516 395.28938007 209.88911819 C395.29129005 213.90898896 395.29321037 217.92885972 395.29516602 221.94873047 C395.29564976 222.94788155 395.2961335 223.94703263 395.2966319 224.97646102 C395.30493497 241.16773134 395.33027588 257.35892785 395.36274669 273.55016592 C395.39579347 290.16370202 395.41382668 306.77720057 395.41702431 323.39076972 C395.41919163 332.72259836 395.42797252 342.05431937 395.45348549 351.38611603 C395.47515999 359.3324126 395.48325898 367.27857541 395.47351871 375.22489819 C395.46896452 379.28034361 395.47092477 383.33551284 395.49028015 387.39092064 C395.50784538 391.10326129 395.50696871 394.81512291 395.49138286 398.52746817 C395.48786578 400.50728122 395.50408257 402.4870989 395.52098733 404.46684289 C395.44307281 415.15991082 395.44307281 415.15991082 391 420 C386.75490328 424.13664534 381.5940255 426.23960769 376.25 428.625 C374.70687134 429.32290649 374.70687134 429.32290649 373.13256836 430.03491211 C357.60578465 437.02447179 341.9903186 443.81802937 326.39013672 450.64160156 C317.79866553 454.3998507 309.21170058 458.16836698 300.625 461.9375 C299.78413849 462.30650421 298.94327698 462.67550842 298.07693481 463.05569458 C284.87536834 468.84958676 271.68531682 474.66923516 258.5 480.5 C244.71627256 486.59429225 230.93060129 492.68413317 217.13476562 498.75097656 C215.36123256 499.53115132 213.58795034 500.31189658 211.81494141 501.09326172 C184.13090425 513.29165676 184.13090425 513.29165676 173 511 C172.34 511.33 171.68 511.66 171 512 C168.98899908 512.09660884 166.9747454 512.12796494 164.96142578 512.12939453 C163.69315948 512.13254669 162.42489319 512.13569885 161.11819458 512.13894653 C159.72723354 512.13715631 158.33627281 512.13510525 156.9453125 512.1328125 C155.5228575 512.13348599 154.10040261 512.13445639 152.677948 512.13571167 C149.69365343 512.13718747 146.70938876 512.1350385 143.72509766 512.13037109 C139.90290498 512.12468421 136.08078268 512.12794693 132.25859261 512.13394356 C129.31948316 512.13756118 126.38039032 512.13640488 123.44128036 512.13381577 C122.03229641 512.13314928 120.62331095 512.13396518 119.21432877 512.13629532 C117.24200724 512.13884033 115.26968042 512.1342723 113.29736328 512.12939453 C112.17532501 512.12859894 111.05328674 512.12780334 109.89724731 512.12698364 C107 512 107 512 104.79391479 511.42941284 C102.77908979 510.78008745 102.77908979 510.78008745 100 512 C92.09351835 512.932325 86.13394194 509.85522921 79.0625 506.625 C77.75156556 506.03967465 76.439938 505.45589962 75.12768555 504.87353516 C72.27152551 503.60403192 69.41894019 502.3269014 66.56835938 501.04492188 C61.86513645 498.93402655 57.14538733 496.86189721 52.421875 494.796875 C51.60303329 494.43878754 50.78419159 494.08070007 49.9405365 493.71176147 C48.25527951 492.97478963 46.57001226 492.23784125 44.88473511 491.50091553 C28.83757544 484.47677291 12.81803328 477.38966496 -3.2024231 470.30490112 C-15.4883772 464.8719157 -27.78020568 459.45260322 -40.08132935 454.05404663 C-42.60584206 452.94590939 -45.12997725 451.83691594 -47.65405273 450.7277832 C-55.60438294 447.23570916 -63.55883756 443.75367171 -71.52441406 440.29649353 C-75.29712921 438.65835248 -79.06780827 437.01555505 -82.83831787 435.37234497 C-84.63193918 434.59223443 -86.42655359 433.81440263 -88.222229 433.03903198 C-90.71449153 431.96274606 -93.20323013 430.87866156 -95.69140625 429.79296875 C-96.77928688 429.32688202 -96.77928688 429.32688202 -97.8891449 428.85137939 C-105.61214794 425.46204439 -113.07227483 421.85545035 -117 414 C-117.09801059 412.18170489 -117.13100803 410.35977692 -117.13422108 408.53884506 C-117.13867892 407.37162564 -117.14313676 406.20440622 -117.14772969 405.00181651 C-117.14754533 403.70826723 -117.14736097 402.41471796 -117.14717102 401.08197021 C-117.15046878 399.70271108 -117.15419417 398.32345291 -117.1583125 396.94419599 C-117.16835061 393.14076968 -117.1720522 389.33735916 -117.17470181 385.53392148 C-117.17859951 381.43700057 -117.18817821 377.34009223 -117.19691467 373.24317932 C-117.21669426 363.34252946 -117.2267472 353.44187855 -117.23564246 343.54121387 C-117.24002293 338.88177668 -117.24539036 334.22234064 -117.25063133 329.56290436 C-117.26764513 314.07889924 -117.28214005 298.59489484 -117.28938007 283.11088181 C-117.29129005 279.09101104 -117.29321037 275.07114028 -117.29516602 271.05126953 C-117.29564976 270.05211845 -117.2961335 269.05296737 -117.2966319 268.02353898 C-117.30493497 251.83226866 -117.33027588 235.64107215 -117.36274669 219.44983408 C-117.39579347 202.83629798 -117.41382668 186.22279943 -117.41702431 169.60923028 C-117.41919163 160.27740164 -117.42797252 150.94568063 -117.45348549 141.61388397 C-117.47515999 133.6675874 -117.48325898 125.72142459 -117.47351871 117.77510181 C-117.46896452 113.71965639 -117.47092477 109.66448716 -117.49028015 105.60907936 C-117.50784538 101.89673871 -117.50696871 98.18487709 -117.49138286 94.47253183 C-117.48786578 92.49271878 -117.50408257 90.5129011 -117.52098733 88.53315711 C-117.44284967 77.80946505 -117.44284967 77.80946505 -113 73 C-107.88152791 68.38089104 -104.13219119 67.78320767 -97.453125 67.83203125 C-94.65351465 68.02372432 -92.47630447 68.67930428 -90 70 C-89.72760498 69.41371826 -89.45520996 68.82743652 -89.17456055 68.22338867 C-88.02301591 66.04356806 -86.77490706 64.32183511 -85.20703125 62.42578125 C-84.66272461 61.76231689 -84.11841797 61.09885254 -83.55761719 60.4152832 C-82.98172852 59.72136475 -82.40583984 59.02744629 -81.8125 58.3125 C-78.15872651 53.89195291 -74.58578361 49.48101985 -71.25 44.8125 C-67.14359581 39.45676586 -61.54935653 36.41032019 -55 35 C-46.59211848 34.1832287 -38.65566665 36.08893863 -30.5 37.9375 C-29.22640625 38.21529297 -27.9528125 38.49308594 -26.640625 38.77929688 C-17.33154762 40.83422619 -17.33154762 40.83422619 -15 42 C-15.02618408 40.90534424 -15.05236816 39.81068848 -15.0793457 38.68286133 C-15.17003219 34.61096742 -15.22731549 30.53916224 -15.2746582 26.46655273 C-15.29976061 24.70598324 -15.33385028 22.94551753 -15.37719727 21.18530273 C-15.43804115 18.65061821 -15.46625113 16.11731425 -15.48828125 13.58203125 C-15.51408768 12.79850784 -15.5398941 12.01498444 -15.56648254 11.2077179 C-15.56860192 7.05270099 -15.32511194 5.43601958 -12.7578125 1.99291992 C-8.44455371 -1.12403577 -5.12467576 -0.61288167 0 0 Z " fill="#010000" transform="translate(117,0)"/>
<path d="M0 0 C0 106.26 0 212.52 0 322 C-17.26284195 330.05599291 -17.26284195 330.05599291 -24.8671875 333.42578125 C-25.73286346 333.81067215 -26.59853943 334.19556305 -27.490448 334.59211731 C-30.28461364 335.83379427 -33.07974607 337.07327514 -35.875 338.3125 C-37.86491452 339.19578802 -39.85482326 340.07908905 -41.84472656 340.96240234 C-59.85740749 348.95357726 -77.89868771 356.87916397 -95.94824219 364.78662109 C-104.42522376 368.50039906 -112.9004109 372.21826624 -121.375 375.9375 C-122.20713013 376.30266724 -123.03926025 376.66783447 -123.89660645 377.04406738 C-141.32943316 384.69538074 -158.74469239 392.38636645 -176.15625 400.0859375 C-177.30204025 400.59259193 -177.30204025 400.59259193 -178.47097778 401.10948181 C-179.20049652 401.43219559 -179.93001526 401.75490936 -180.68164062 402.08740234 C-181.38587158 402.3979657 -182.09010254 402.70852905 -182.81567383 403.02850342 C-184.37386836 403.72152293 -185.92797765 404.42375818 -187.47924805 405.13214111 C-188.28724854 405.49926208 -189.09524902 405.86638306 -189.92773438 406.24462891 C-190.66004272 406.58056061 -191.39235107 406.91649231 -192.14685059 407.26260376 C-194 408 -194 408 -196 408 C-196 301.41 -196 194.82 -196 85 C-169.72987553 73.39227058 -143.45661795 61.79444486 -117.15429688 50.26025391 C-116.30923584 49.88966858 -115.4641748 49.51908325 -114.59350586 49.13726807 C-112.84367633 48.36995719 -111.09383891 47.60266431 -109.34399414 46.83538818 C-103.10403132 44.09927141 -96.86430875 41.36260799 -90.625 38.625 C-89.75962616 38.24532074 -88.89425232 37.86564148 -88.00265503 37.47445679 C-76.58807161 32.46533576 -65.18694348 27.42769491 -53.80175781 22.35205078 C-43.48660187 17.75880835 -33.14127567 13.2351363 -22.79272461 8.71777344 C-22.14607346 8.43536804 -21.4994223 8.15296265 -20.83317566 7.86199951 C-18.98789074 7.05665195 -17.14190573 6.25290911 -15.29589844 5.44921875 C-11.75588731 3.89266275 -8.23969134 2.28899666 -4.73876953 0.64648438 C-3 0 -3 0 0 0 Z " fill="#C61D1D" transform="translate(495,86)"/>
<path d="M0 0 C3.48184282 0.69636856 5.77683895 1.19291344 8.86425781 2.57202148 C9.95900421 3.05643959 9.95900421 3.05643959 11.0758667 3.55064392 C11.86036194 3.90389236 12.64485718 4.25714081 13.453125 4.62109375 C14.28837708 4.99218765 15.12362915 5.36328156 15.98419189 5.74562073 C18.74150054 6.97172254 21.49567555 8.20471101 24.25 9.4375 C26.19179094 10.30203079 28.13385246 11.16595407 30.07617188 12.02929688 C33.07848362 13.36381186 36.08065236 14.69863591 39.08203125 16.0352478 C48.03868511 20.02326082 57.01359026 23.96880993 65.9942627 27.90237427 C82.62200475 35.18607377 99.23086385 42.51202185 115.83056641 49.859375 C125.09425282 53.95813538 134.36516927 58.03951582 143.6484375 62.09375 C145.55013695 62.92511478 147.45182976 63.75649476 149.35351562 64.58789062 C152.9573653 66.16325258 156.56310276 67.7341851 160.16992188 69.30273438 C161.79824781 70.01416106 163.42650674 70.72574114 165.0546875 71.4375 C166.15627701 71.91431213 166.15627701 71.91431213 167.28012085 72.40075684 C177.42367679 76.84735359 177.42367679 76.84735359 179 80 C179.09016377 81.60354452 179.11756075 83.21082222 179.11352539 84.81689453 C179.11344986 85.81778107 179.11337433 86.8186676 179.11329651 87.84988403 C179.10813522 88.93325043 179.10297394 90.01661682 179.09765625 91.1328125 C179.09553383 92.79327103 179.09553383 92.79327103 179.09336853 94.48727417 C179.08775772 98.03320993 179.07520337 101.57908323 179.0625 105.125 C179.05748639 107.52473867 179.05292325 109.92447833 179.04882812 112.32421875 C179.03778478 118.21616725 179.0210361 124.10807916 179 130 C178.36187378 129.60775238 177.72374756 129.21550476 177.06628418 128.81137085 C172.0607066 125.76574455 167.09375908 122.94541258 161.78125 120.4765625 C161.13369751 120.17366302 160.48614502 119.87076355 159.81896973 119.5586853 C157.71493167 118.57580002 155.60749925 117.60043844 153.5 116.625 C151.99582484 115.92375361 150.49192411 115.22191829 148.98828125 114.51953125 C145.87214547 113.06446182 142.75485853 111.61190251 139.63671875 110.16113281 C133.11513621 107.12450819 126.60814457 104.05697573 120.10083008 100.9899292 C116.5678971 99.3251808 113.03389141 97.66271263 109.5 96 C108.08332826 95.33334411 106.66666159 94.66667745 105.25 94 C104.54875 93.67 103.8475 93.34 103.125 93 C101 92 98.875 91 96.75 90 C96.04889603 89.6700705 95.34779205 89.34014099 94.6254425 89.00021362 C93.20729529 88.33284663 91.78915362 87.66546787 90.37101746 86.99807739 C86.85204828 85.34202956 83.3329863 83.68617954 79.8137207 82.03076172 C73.16789644 78.90439021 66.52308518 75.77591154 59.88131714 72.64093018 C56.74031611 71.15848597 53.59881563 69.67710191 50.45727539 68.19580078 C48.95832697 67.48864925 47.45962405 66.78097704 45.96118164 66.07275391 C43.88489501 65.09145823 41.80777283 64.11195207 39.73046875 63.1328125 C38.54864014 62.57480957 37.36681152 62.01680664 36.14916992 61.44189453 C28.87693763 58.10846236 28.87693763 58.10846236 21 59 C18.19162164 61.51924511 17.99325032 63.06981691 17.6257782 66.87084961 C17.61101033 68.4646127 17.61284539 70.05858133 17.62768555 71.65234375 C17.62403488 72.52432404 17.62038422 73.39630432 17.61662292 74.29470825 C17.60851982 77.17583721 17.6221256 80.05640334 17.63671875 82.9375 C17.63723739 84.94002278 17.63671955 86.94254608 17.63520813 88.94506836 C17.63529784 93.14151614 17.64572545 97.33777177 17.66381836 101.53417969 C17.68650539 106.9145667 17.68704949 112.29467293 17.68030071 117.6750946 C17.67696 121.81004331 17.68359278 125.94492795 17.69342995 130.0798645 C17.69728046 132.06380885 17.69843078 134.04776032 17.6968441 136.03170776 C17.69647344 138.80382884 17.7090939 141.57558931 17.7253418 144.34765625 C17.72286438 145.16855743 17.72038696 145.98945862 17.71783447 146.8352356 C17.7176329 152.24905669 17.7176329 152.24905669 20 157 C22.69028008 158.73071374 22.69028008 158.73071374 25.9921875 160.21484375 C26.60055954 160.50644379 27.20893158 160.79804382 27.83573914 161.09848022 C29.84333717 162.05689044 31.85885945 162.99720996 33.875 163.9375 C35.29204755 164.60929598 36.70862701 165.28208013 38.12475586 165.95581055 C42.40825538 167.98831749 46.70270686 169.99685517 51 172 C52.1864209 172.55397461 53.3728418 173.10794922 54.59521484 173.67871094 C59.04535752 175.75315509 63.49838582 177.82117016 67.95605469 179.87939453 C77.87567581 184.46097295 87.75367884 189.12787028 97.625 193.8125 C100.86061921 195.34777827 104.0962818 196.882965 107.33203125 198.41796875 C108.13381805 198.79833786 108.93560486 199.17870697 109.76168823 199.57060242 C118.27071819 203.6055392 126.79046932 207.61760934 135.3125 211.625 C135.98831116 211.94280426 136.66412231 212.26060852 137.3604126 212.58804321 C138.01636414 212.89648163 138.67231567 213.20492004 139.34814453 213.52270508 C139.99464966 213.82700943 140.64115479 214.13131378 141.30725098 214.44483948 C142.58374039 215.04422021 143.86131384 215.64129825 145.14001465 216.23594666 C148.62580132 217.86086235 152.07783382 219.53539378 155.50927734 221.27246094 C156.26564987 221.64776947 157.0220224 222.023078 157.80131531 222.40975952 C159.25439215 223.13166401 160.70078441 223.86724747 162.13874817 224.61880493 C166.78694966 226.90341069 169.82450689 227.43964404 175 226 C176.32 225.01 177.64 224.02 179 223 C179 234.55 179 246.1 179 258 C175.7 256.02 172.4 254.04 169 252 C166.61482746 250.78328626 164.20943346 249.60499745 161.78125 248.4765625 C160.80992126 248.02221329 160.80992126 248.02221329 159.81896973 247.5586853 C157.71493167 246.57580002 155.60749925 245.60043844 153.5 244.625 C151.99582484 243.92375361 150.49192411 243.22191829 148.98828125 242.51953125 C145.87214547 241.06446182 142.75485853 239.61190251 139.63671875 238.16113281 C133.11476492 235.1243353 126.60741218 232.0566099 120.09973145 228.98937988 C116.57241432 227.32733086 113.04393493 225.66775257 109.515625 224.0078125 C104.51745837 221.65595387 99.51980473 219.30300976 94.52272034 216.94885254 C80.48645059 210.33628118 66.4476083 203.72931836 52.39001465 197.16217041 C51.11084095 196.56456957 49.83178383 195.96671911 48.55285645 195.36859131 C45.70166497 194.03547386 42.8485978 192.70666979 39.9921875 191.38476562 C38.09277897 190.50573126 36.19653146 189.619808 34.3046875 188.72460938 C33.51191406 188.35658203 32.71914063 187.98855469 31.90234375 187.609375 C31.23323975 187.29452148 30.56413574 186.97966797 29.87475586 186.65527344 C26.62590196 185.51971883 24.20670215 185.97385531 21 187 C18.83333333 188.5 18.83333333 188.5 18 191 C17.83974601 194.54578685 17.83974601 194.54578685 19 198 C22.16693575 200.91655909 25.37107764 202.83569236 29.27734375 204.6015625 C30.32809082 205.08214111 31.37883789 205.56271973 32.46142578 206.05786133 C34.18208252 206.83359497 34.18208252 206.83359497 35.9375 207.625 C38.47691594 208.78415416 41.01376203 209.94889256 43.55078125 211.11328125 C44.56093292 211.57576515 44.56093292 211.57576515 45.5914917 212.04759216 C53.97280392 215.89121893 62.29676108 219.85557715 70.625 223.8125 C73.88256565 225.35859344 77.14046565 226.90398147 80.3984375 228.44921875 C81.6065786 229.02233292 81.6065786 229.02233292 82.83912659 229.60702515 C94.41797192 235.09778929 106.01671415 240.54629361 117.61445618 245.99699402 C122.86588076 248.46550362 128.11486434 250.93916567 133.36328125 253.4140625 C135.68180901 254.50689002 138.00038015 255.59962543 140.31896973 256.69232178 C141.79219171 257.38684987 143.26525986 258.08170439 144.73815918 258.7769165 C149.15420542 260.86117294 153.57441209 262.93607314 158 265 C158.93215332 265.43642822 159.86430664 265.87285645 160.82470703 266.32250977 C161.6186084 266.68658936 162.41250977 267.05066895 163.23046875 267.42578125 C163.88297607 267.72653564 164.5354834 268.02729004 165.20776367 268.3371582 C168.26680216 269.4685149 170.80486811 269.43011391 174 269 C175.65 268.01 177.3 267.02 179 266 C179 309.56 179 353.12 179 398 C174.29831897 397.05966379 170.38606933 395.56848989 166.0546875 393.6328125 C165.26929596 393.28664886 164.48390442 392.94048523 163.67471313 392.58383179 C161.07269306 391.43561042 158.47388557 390.28029637 155.875 389.125 C154.03471113 388.31138304 152.19421248 387.49824042 150.35351562 386.68554688 C146.50103047 384.98359879 142.64986651 383.27871197 138.79980469 381.57128906 C133.25666924 379.11304912 127.71085 376.66092402 122.1640625 374.2109375 C120.38606505 373.42554313 118.60807026 372.64014274 116.83007812 371.85473633 C115.95198486 371.46685944 115.0738916 371.07898254 114.16918945 370.67935181 C111.47910275 369.49076678 108.78931527 368.30150705 106.09960938 367.11206055 C93.8658965 361.70266283 81.62374225 356.31277437 69.375 350.9375 C68.54388702 350.57267517 67.71277405 350.20785034 66.85647583 349.83197021 C58.06511373 345.97302552 49.27202138 342.11807345 40.47558594 338.27070618 C36.70380919 336.62069383 32.9327088 334.9691391 29.16168213 333.31741333 C27.367387 332.53202479 25.57275803 331.74739845 23.777771 330.96359253 C21.28722039 329.87604013 18.79780177 328.78593363 16.30859375 327.6953125 C15.22071312 327.22148384 15.22071312 327.22148384 14.1108551 326.73808289 C9.31407297 324.63243056 4.69888234 322.34944117 0 320 C0 214.4 0 108.8 0 0 Z " fill="#F24234" transform="translate(17,88)"/>
<path d="M0 0 C4.87280077 0.67637564 9.00964976 2.62025365 13.453125 4.62109375 C14.28878494 4.99236893 15.12444489 5.3636441 15.98542786 5.74617004 C18.74232467 6.9720885 21.49608983 8.20488891 24.25 9.4375 C26.18519928 10.29910077 28.12066887 11.16009467 30.05639648 12.02050781 C33.05170442 13.35191008 36.04686892 14.68362233 39.04124451 16.01712036 C48.18344858 20.08774788 57.34410633 24.11555957 66.51034546 28.13171387 C70.76015639 29.99386781 75.00900671 31.85821029 79.2578125 33.72265625 C80.08018906 34.08350311 80.90256561 34.44434998 81.74986267 34.81613159 C89.98349757 38.42990087 98.21138391 42.05665348 106.4375 45.6875 C107.12649384 45.99158783 107.81548767 46.29567566 108.52536011 46.60897827 C114.76784559 49.36427525 121.00976509 52.12085329 127.25146484 54.87792969 C143.05363204 61.85784099 158.86078366 68.82589739 174.6875 75.75 C175.36580872 76.04681671 176.04411743 76.34363342 176.74298096 76.64944458 C183.15326339 79.45388182 189.56873071 82.24374173 196 85 C196 191.59 196 298.18 196 408 C187 405 187 405 178 401 C178 357.44 178 313.88 178 269 C176.68 269.99 175.36 270.98 174 272 C168.46745844 272.64707128 164.50357514 271.27239732 159.63671875 268.84375 C158.94043869 268.51011948 158.24415863 268.17648895 157.52677917 267.83274841 C155.24084366 266.73414564 152.96447579 265.61703774 150.6875 264.5 C149.07573578 263.72193027 147.46325578 262.94534167 145.85009766 262.17016602 C142.5245154 260.57087741 139.2019459 258.96556664 135.88134766 257.35595703 C129.26707542 254.1559026 122.61632406 251.03441147 115.96304321 247.91650391 C112.45025859 246.26949304 108.94016047 244.61677434 105.4296875 242.96484375 C104.02572954 242.30449626 102.62175819 241.64417723 101.21777344 240.98388672 C96.98086212 238.99110736 92.74428954 236.99760866 88.5078125 235.00390625 C87.80489075 234.67311569 87.10196899 234.34232513 86.37774658 234.00151062 C82.85396834 232.34321006 79.33025848 230.68476437 75.80664062 229.02612305 C69.19176469 225.91254749 62.57626661 222.8003142 55.9586792 219.69250488 C52.84624305 218.23072072 49.73414413 216.76821942 46.62207031 215.30566406 C45.14404835 214.61129564 43.66586277 213.91727534 42.1875 213.22363281 C19.43182296 202.54645163 19.43182296 202.54645163 17 198 C16.92518618 193.73561227 17.35160428 191.76281849 20.125 188.5 C23.80738173 186.57875736 26.13464027 186.92838123 30 188 C34.15365285 189.6434423 38.16149217 191.56793805 42.1875 193.5 C43.41479328 194.08053569 44.64250731 194.66018261 45.87060547 195.23901367 C48.51923831 196.48932157 51.16511803 197.74522087 53.80908203 199.00537109 C58.08475047 201.04246048 62.36786987 203.06354088 66.65234375 205.08203125 C72.71826514 207.94084516 78.78194481 210.80434369 84.84375 213.671875 C92.89854147 217.48156002 100.95851995 221.28013321 109.02130127 225.07287598 C111.11636364 226.05843727 113.21127213 227.04432502 115.30615234 228.03027344 C121.82808363 231.0993616 128.35129214 234.16568617 134.87753296 237.2256012 C137.93422337 238.65900463 140.99030104 240.09371174 144.04632568 241.52853394 C145.48404921 242.20311517 146.92206486 242.87707425 148.3604126 243.55032349 C155.55676836 246.91884184 162.73501444 250.32114977 169.859375 253.83984375 C170.99342773 254.39921631 172.12748047 254.95858887 173.29589844 255.53491211 C176 257 176 257 178 259 C178 248.11 178 237.22 178 226 C175.525 227.98 175.525 227.98 173 230 C166.00662296 230.25072286 159.91202262 226.30479934 153.8125 223.25 C151.36936815 222.04632491 148.92275861 220.84977641 146.4765625 219.65234375 C145.85224838 219.34556198 145.22793427 219.03878021 144.58470154 218.72270203 C138.33062431 215.6549149 132.01471666 212.72611287 125.6875 209.8125 C114.55201362 204.66933821 103.45643265 199.44600832 92.375 194.1875 C89.13676298 192.65094843 85.89850867 191.11443335 82.66015625 189.578125 C81.8579364 189.19753937 81.05571655 188.81695374 80.22918701 188.42483521 C72.48809897 184.75408006 64.73724598 181.10423323 56.98397827 177.45928955 C54.84244468 176.45159048 52.70195402 175.44170897 50.56176758 174.43115234 C44.64746743 171.6404411 38.72932725 168.86394088 32.765625 166.1796875 C31.86739014 165.77049072 30.96915527 165.36129395 30.04370117 164.93969727 C28.46358855 164.22186001 26.87825422 163.51533051 25.28637695 162.82397461 C20.96659017 160.84854779 18.95227164 159.32501037 17 155 C16.57166875 152.08048859 16.57968522 149.19681404 16.59594727 146.25 C16.58908401 145.37947998 16.58222076 144.50895996 16.57514954 143.61206055 C16.55688276 140.74120671 16.56071846 137.87089935 16.56640625 135 C16.56184477 133.00130028 16.5565393 131.00260212 16.55052185 129.00390625 C16.54159127 124.81764346 16.54401376 120.63157145 16.55395508 116.4453125 C16.56545144 111.08170184 16.54522263 105.71874887 16.51603794 100.35522461 C16.4976904 96.22879863 16.49796541 92.10253074 16.50367546 87.97607422 C16.50382882 85.99852576 16.49777276 84.02096669 16.48538399 82.04345703 C16.47050118 79.27855154 16.48113054 76.51486734 16.49829102 73.75 C16.48862305 72.93426514 16.47895508 72.11853027 16.46899414 71.27807617 C16.51963189 67.38055147 16.74494721 65.41849456 18.82034302 62.01315308 C21.8452009 59.21936397 23.92440998 59.04448195 28 59 C30.97729492 59.90185547 30.97729492 59.90185547 33.98046875 61.3671875 C35.12547852 61.9142334 36.27048828 62.4612793 37.45019531 63.02490234 C38.6960381 63.64145093 39.94180389 64.25815511 41.1875 64.875 C42.50922191 65.51303428 43.83183682 66.1492215 45.15527344 66.78369141 C47.97838635 68.13948469 50.79696321 69.50414752 53.61279297 70.875 C60.21014058 74.07995678 66.85262178 77.1893534 73.48971558 80.31088257 C77.30011107 82.1047755 81.1068805 83.90633124 84.9140625 85.70703125 C92.9451425 89.50381101 100.98099766 93.29037936 109.01928711 97.0718689 C111.11517027 98.05787561 113.21091616 99.04417362 115.30664062 100.03051758 C121.82841484 103.09951223 128.35145687 106.16576341 134.87753296 109.2256012 C137.93422337 110.65900463 140.99030104 112.09371174 144.04632568 113.52853394 C145.48404921 114.20311517 146.92206486 114.87707425 148.3604126 115.55032349 C155.55676836 118.91884184 162.73501444 122.32114977 169.859375 125.83984375 C170.99342773 126.39921631 172.12748047 126.95858887 173.29589844 127.53491211 C176 129 176 129 178 131 C178 114.17 178 97.34 178 80 C176.35 79.34 174.7 78.68 173 78 C171.64723239 77.41555048 170.29788521 76.82311773 168.95214844 76.22265625 C168.18229614 75.8797757 167.41244385 75.53689514 166.6192627 75.18362427 C165.79099976 74.81365326 164.96273682 74.44368225 164.109375 74.0625 C162.28809733 73.25111375 160.46680773 72.43975428 158.64550781 71.62841797 C157.20624939 70.98667633 157.20624939 70.98667633 155.73791504 70.33197021 C139.5946119 63.13551427 123.43695828 55.97272843 107.25 48.875 C106.41406311 48.50841278 105.57812622 48.14182556 104.71685791 47.76412964 C100.49547291 45.91316007 96.27373438 44.06299871 92.05175781 42.21337891 C84.42345314 38.87140753 76.79658522 35.52616271 69.17034912 32.17947388 C67.48342189 31.43920071 65.79645138 30.69902618 64.10943604 29.95895386 C54.05564433 25.54806502 44.00827986 21.12294902 33.96875 16.6796875 C32.97451019 16.23976974 31.98027039 15.79985199 30.9559021 15.34660339 C26.12548452 13.2090372 21.29581048 11.06981568 16.46728516 8.92797852 C14.7308122 8.15897644 12.99432223 7.39001278 11.2578125 6.62109375 C10.06557068 6.09121353 10.06557068 6.09121353 8.84924316 5.55062866 C5.92236578 4.25577494 3.03826479 3.01275493 0 2 C0 1.34 0 0.68 0 0 Z " fill="#C61E1E" transform="translate(17,86)"/>
<path d="M0 0 C0 22.11 0 44.22 0 67 C-4.8675 69.289375 -9.735 71.57875 -14.75 73.9375 C-26.42746732 79.43140866 -38.10107695 84.93339305 -49.76959229 90.44628906 C-55.01302991 92.92344494 -60.25703238 95.39940496 -65.50097656 97.87548828 C-68.5135266 99.29795859 -71.52587001 100.72086529 -74.53808594 102.14404297 C-103.09029418 115.63179912 -103.09029418 115.63179912 -117 122 C-117.90218262 122.41564209 -118.80436523 122.83128418 -119.73388672 123.25952148 C-120.5435791 123.62762939 -121.35327148 123.9957373 -122.1875 124.375 C-122.88230469 124.69210937 -123.57710938 125.00921875 -124.29296875 125.3359375 C-126 126 -126 126 -128 126 C-128 104.22 -128 82.44 -128 60 C-109.52539894 50.76269947 -109.52539894 50.76269947 -100.234375 46.421875 C-99.23180664 45.95297852 -99.23180664 45.95297852 -98.20898438 45.47460938 C-97.52126953 45.15298828 -96.83355469 44.83136719 -96.125 44.5 C-94.64833733 43.80750522 -93.17177734 43.11479146 -91.6953125 42.421875 C-88.64394648 40.990048 -85.59215203 39.5591403 -82.54003906 38.12890625 C-76.05636748 35.08973928 -69.57814003 32.03901248 -63.09973145 28.98864746 C-59.60050039 27.341053 -56.10106822 25.69388599 -52.6015625 24.046875 C-51.9055896 23.71931213 -51.2096167 23.39174927 -50.49255371 23.05426025 C-45.98215469 20.9317728 -41.47072418 18.81149094 -36.9586792 16.69250488 C-33.84624305 15.23072072 -30.73414413 13.76821942 -27.62207031 12.30566406 C-26.14404835 11.61129564 -24.66586277 10.91727534 -23.1875 10.22363281 C-21.13239156 9.25935629 -19.07776786 8.29405795 -17.0234375 7.328125 C-16.3923407 7.03168091 -15.7612439 6.73523682 -15.11102295 6.42980957 C-11.76747571 4.85356427 -8.45379128 3.23232599 -5.1640625 1.546875 C-2 0 -2 0 0 0 Z " fill="#F37B00" transform="translate(461,167)"/>
<path d="M0 0 C18.36543805 8.03487915 18.36543805 8.03487915 24.6796875 11.05859375 C25.40771576 11.404561 26.13574402 11.75052826 26.88583374 12.10697937 C28.42476081 12.83858823 29.96318066 13.57126496 31.50109863 14.30499268 C34.80552531 15.88142187 38.11262219 17.45221436 41.41955566 19.02337646 C43.12402443 19.83321679 44.8283702 20.64331603 46.53259277 21.45367432 C54.76160888 25.36567684 63.00408697 29.24876988 71.25 33.125 C72.62907902 33.77357898 74.00814805 34.4221792 75.38720703 35.07080078 C81.15212343 37.78192331 86.91775288 40.49152782 92.68359375 43.20068359 C96.61724763 45.0489798 100.55058757 46.8979428 104.48376465 48.74725342 C106.69365904 49.78601687 108.90394947 50.82393413 111.11425781 51.86181641 C112.46681733 52.49767784 113.81935743 53.13358059 115.171875 53.76953125 C116.9367627 54.59868042 116.9367627 54.59868042 118.73730469 55.44458008 C121.84318077 56.9252398 124.92249199 58.46124599 128 60 C128 81.78 128 103.56 128 126 C117.88456526 122.62818842 117.88456526 122.62818842 113.19921875 120.3203125 C112.15531982 119.81089111 111.1114209 119.30146973 110.03588867 118.77661133 C108.37843628 117.95906372 108.37843628 117.95906372 106.6875 117.125 C104.26120811 115.94234175 101.83432013 114.76102297 99.40625 113.58203125 C98.47905403 113.1311338 98.47905403 113.1311338 97.53312683 112.67112732 C91.28725075 109.6403036 84.9917023 106.71983355 78.6875 103.8125 C65.87356902 97.89563745 53.11669607 91.86233655 40.3737793 85.79418945 C26.96277208 79.42034654 13.48536747 73.22401575 0 67 C0 44.89 0 22.78 0 0 Z " fill="#FD9700" transform="translate(51,167)"/>
<path d="M0 0 C1.18335938 1.50433594 1.18335938 1.50433594 2.390625 3.0390625 C3.56069998 4.40779082 4.7327361 5.77484398 5.90625 7.140625 C7.15382398 8.64613621 8.39856149 10.15400188 9.640625 11.6640625 C10.27742187 12.4271875 10.91421875 13.1903125 11.5703125 13.9765625 C12.17617188 14.71132812 12.78203125 15.44609375 13.40625 16.203125 C14.23044434 17.20013428 14.23044434 17.20013428 15.07128906 18.21728516 C16.390625 20.0390625 16.390625 20.0390625 17.390625 23.0390625 C8.45135742 27.61072739 -0.55328278 31.85773049 -9.796875 35.7890625 C-12.44136024 36.92286766 -15.08408568 38.06074164 -17.7265625 39.19921875 C-18.42745499 39.50092484 -19.12834747 39.80263092 -19.85047913 40.11347961 C-29.0684334 44.08861813 -38.24314721 48.16190386 -47.421875 52.2265625 C-51.12354314 53.86493323 -54.82539176 55.50289574 -58.52734375 57.140625 C-59.45017654 57.5489003 -60.37300934 57.9571756 -61.32380676 58.37782288 C-70.95311911 62.63625948 -80.59254365 66.8715618 -90.234375 71.1015625 C-91.06415863 71.46560181 -91.89394226 71.82964111 -92.74887085 72.20471191 C-96.10560242 73.67725406 -99.46239201 75.14966381 -102.81929016 76.62182617 C-109.22947149 79.43314016 -115.63838767 82.24732686 -122.046875 85.0625 C-123.93798631 85.89315228 -125.82909957 86.72380012 -127.72021484 87.55444336 C-130.44922006 88.75312359 -133.17819311 89.95187667 -135.90704346 91.15090942 C-138.40404888 92.24802865 -140.90122501 93.34475845 -143.3984375 94.44140625 C-144.12885254 94.76245331 -144.85926758 95.08350037 -145.61181641 95.41427612 C-146.96835147 96.00984018 -148.32575637 96.60342839 -149.68417358 97.19468689 C-150.9867526 97.76598605 -152.2848949 98.34749162 -153.57876587 98.93824768 C-157.93383179 100.89594021 -159.94651938 101.05871769 -164.609375 100.0390625 C-168.56325307 99.75580179 -172.52339351 99.62534321 -176.484375 99.4765625 C-177.55429687 99.43337891 -178.62421875 99.39019531 -179.7265625 99.34570312 C-182.35405254 99.24013433 -184.98162922 99.13802459 -187.609375 99.0390625 C-188.95616835 83.77540454 -188.95616835 83.77540454 -186.1328125 78.0390625 C-183.8036973 75.38718602 -181.36490787 73.24643195 -178.609375 71.0390625 C-177.51748952 70.09349838 -176.42775159 69.14545035 -175.33984375 68.1953125 C-165.8073154 60.06943908 -155.31982206 53.4844779 -144.609375 47.0390625 C-144.00303223 46.6682959 -143.39668945 46.2975293 -142.77197266 45.91552734 C-105.83060755 23.38872815 -62.75456494 8.35252227 -20.546875 -0.3984375 C-19.76844238 -0.56255127 -18.99000977 -0.72666504 -18.18798828 -0.89575195 C-4.69173921 -3.52582797 -4.69173921 -3.52582797 0 0 Z " fill="#FDDEB0" transform="translate(451.609375,54.9609375)"/>
<path d="M0 0 C1.08740479 0.22075195 2.17480957 0.44150391 3.29516602 0.66894531 C32.04188427 6.74251398 60.35325153 16.60821527 87.0546875 28.79882812 C89.5299119 29.92810335 92.01393635 31.03547915 94.5 32.140625 C118.61622752 43.03255974 143.05124609 56.94224762 161.6875 76 C162.44933594 76.73734375 163.21117187 77.4746875 163.99609375 78.234375 C166.44867108 82.24459382 166.12624236 85.7137199 165.9375 90.3125 C165.91945312 91.14845703 165.90140625 91.98441406 165.8828125 92.84570312 C165.83591126 94.89763228 165.76417411 96.94896756 165.6875 99 C165.02218262 99.02505615 164.35686523 99.0501123 163.67138672 99.07592773 C160.63492513 99.19251136 157.59872654 99.31495351 154.5625 99.4375 C153.51578125 99.47681641 152.4690625 99.51613281 151.390625 99.55664062 C150.37226563 99.59853516 149.35390625 99.64042969 148.3046875 99.68359375 C147.37253418 99.72025146 146.44038086 99.75690918 145.47998047 99.79467773 C142.65404858 99.91955547 142.65404858 99.91955547 139.85888672 100.72680664 C135.36218481 101.11416687 132.35808086 99.55525735 128.328125 97.6875 C127.51954041 97.32756958 126.71095581 96.96763916 125.87786865 96.59680176 C123.22453693 95.41188975 120.5813141 94.2059794 117.9375 93 C116.07881234 92.16578457 114.21942799 91.33311981 112.359375 90.50195312 C108.58462832 88.81313469 104.81338604 87.11685244 101.04492188 85.4140625 C94.28713954 82.36359535 87.50282952 79.37455531 80.71499634 76.39172363 C77.96678027 75.18301654 75.22052624 73.96988448 72.47419739 72.75689697 C62.24033446 68.23742162 51.99514652 63.74382135 41.75 59.25 C25.25357975 52.01418395 8.77211877 44.74492188 -7.70092773 37.45605469 C-8.54984085 37.08062531 -9.39875397 36.70519592 -10.27339172 36.31838989 C-11.92600587 35.58717206 -13.57826821 34.85515851 -15.23014832 34.12228394 C-19.16744181 32.37787689 -23.11130861 30.652944 -27.07373047 28.96630859 C-28.19430092 28.48637703 -28.19430092 28.48637703 -29.33750916 27.99674988 C-30.73971529 27.39747811 -32.14420275 26.80350648 -33.55128479 26.21577454 C-38.20091263 24.22317474 -38.20091263 24.22317474 -39.3125 22 C-38.59964844 21.09378906 -37.88679688 20.18757813 -37.15234375 19.25390625 C-36.69142334 18.66762451 -36.23050293 18.08134277 -35.75561523 17.47729492 C-34.74904633 16.1971717 -33.74204511 14.91738829 -32.73461914 13.63793945 C-29.33313464 9.31390705 -25.97022387 4.96290615 -22.65234375 0.57421875 C-17.78742127 -5.14171058 -6.31501307 -1.28562564 0 0 Z " fill="#FCDEB0" transform="translate(82.3125,55)"/>
<path d="M0 0 C2.69990662 1.79993774 4.5418865 3.083773 6 6 C6.1089492 8.81105283 6.15733 11.59770775 6.16113281 14.40942383 C6.16609772 15.27950577 6.17106262 16.14958771 6.17617798 17.04603577 C6.19081849 19.93304222 6.19760505 22.81999372 6.203125 25.70703125 C6.20887528 27.71001691 6.21463303 29.71300254 6.22039795 31.71598816 C6.23091358 35.92011777 6.23675244 40.12422822 6.24023438 44.32836914 C6.24571764 49.7154698 6.26973977 55.10231752 6.29820633 60.48933887 C6.31683123 64.6286035 6.32203825 68.76780722 6.32357025 72.90711021 C6.32659808 74.89303659 6.33463097 76.87896187 6.34775543 78.86484718 C6.36481133 81.6442245 6.36293668 84.42298415 6.35644531 87.20239258 C6.3656601 88.02284058 6.37487488 88.84328857 6.3843689 89.68859863 C6.35078223 94.27961658 5.98216055 97.27695571 3 101 C0.25805664 102.73828125 0.25805664 102.73828125 -3.08984375 104.3125 C-3.69680084 104.60268509 -4.30375793 104.89287018 -4.92910767 105.19184875 C-6.92557643 106.14198534 -8.93113477 107.07096766 -10.9375 108 C-12.35009574 108.66701184 -13.76211628 109.33524309 -15.17358398 110.00463867 C-18.76609569 111.70357138 -22.36660494 113.38463927 -25.97106934 115.05804443 C-27.84524178 115.92815163 -29.71809154 116.80110632 -31.59082031 117.67431641 C-36.04269117 119.74991209 -40.4968311 121.82041104 -44.95629883 123.87963867 C-54.87596329 128.46086566 -64.75377762 133.12791716 -74.625 137.8125 C-77.86061921 139.34777827 -81.0962818 140.882965 -84.33203125 142.41796875 C-85.13381805 142.79833786 -85.93560486 143.17870697 -86.76168823 143.57060242 C-95.27071819 147.6055392 -103.79046932 151.61760934 -112.3125 155.625 C-112.98831116 155.94280426 -113.66412231 156.26060852 -114.3604126 156.58804321 C-115.01636414 156.89648163 -115.67231567 157.20492004 -116.34814453 157.52270508 C-116.99464966 157.82700943 -117.64115479 158.13131378 -118.30725098 158.44483948 C-119.58374039 159.04422021 -120.86131384 159.64129825 -122.14001465 160.23594666 C-125.62580132 161.86086235 -129.07783382 163.53539378 -132.50927734 165.27246094 C-133.26564987 165.64776947 -134.0220224 166.023078 -134.80131531 166.40975952 C-136.25439215 167.13166401 -137.70078441 167.86724747 -139.13874817 168.61880493 C-143.74893922 170.88472844 -146.89397846 171.61654273 -152 170 C-155.04085112 167.18760046 -156.24187966 164.99562887 -156.52139282 160.93969727 C-156.55113639 159.31551258 -156.55896217 157.69083462 -156.54931641 156.06640625 C-156.55953827 155.17637909 -156.56976013 154.28635193 -156.58029175 153.36935425 C-156.60804521 150.43346103 -156.60617414 147.49850862 -156.6015625 144.5625 C-156.60933766 142.51895804 -156.61800726 140.47541931 -156.62753296 138.43188477 C-156.6424483 134.15142329 -156.64188109 129.87129177 -156.63134766 125.59082031 C-156.61974898 120.10586543 -156.65364364 114.62225926 -156.700037 109.13752747 C-156.72949994 104.91841744 -156.73125708 100.6996329 -156.72501755 96.48043823 C-156.72604427 94.45821457 -156.73652556 92.43597275 -156.75664139 90.41384888 C-156.781322 87.58620468 -156.76782512 84.76119579 -156.74462891 81.93359375 C-156.76756012 80.68193924 -156.76756012 80.68193924 -156.79095459 79.40499878 C-156.69068141 73.87442566 -156.69068141 73.87442566 -154.74215698 71.40752888 C-152.21214171 69.23199623 -149.39271921 67.44150915 -146.37011719 66.03393555 C-145.71817383 65.72494827 -145.06623047 65.415961 -144.39453125 65.09761047 C-143.35619141 64.62196907 -143.35619141 64.62196907 -142.296875 64.13671875 C-141.55469727 63.7879216 -140.81251953 63.43912445 -140.04785156 63.07975769 C-137.61904691 61.9406424 -135.18462701 60.81411008 -132.75 59.6875 C-131.03768043 58.8870974 -129.32577199 58.08581475 -127.61425781 57.28369141 C-124.10947238 55.64253636 -120.60255912 54.00606933 -117.09375 52.37353516 C-112.43143199 50.20322524 -107.77639711 48.01782295 -103.125 45.82421875 C-102.42586487 45.49453598 -101.72672974 45.16485321 -101.00640869 44.82518005 C-99.61334454 44.16821055 -98.22029832 43.51120305 -96.82727051 42.85415649 C-93.33922278 41.21000636 -89.84928498 39.56988014 -86.359375 37.9296875 C-80.74418982 35.29034031 -75.1295462 32.64984721 -69.515625 30.0078125 C-68.8120285 29.67668457 -68.10843201 29.34555664 -67.3835144 29.00439453 C-64.55702971 27.67415081 -61.73057146 26.3438509 -58.90411377 25.0135498 C-51.55517889 21.55474759 -44.2059859 18.09649863 -36.85552979 14.64093018 C-33.70435296 13.15946451 -30.55334181 11.67764662 -27.40234375 10.19580078 C-25.8968929 9.48794192 -24.39136045 8.7802566 -22.88574219 8.07275391 C-20.80122691 7.09320957 -18.71699085 6.11307347 -16.6328125 5.1328125 C-15.44574707 4.57480957 -14.25868164 4.01680664 -13.03564453 3.44189453 C-11.26528824 2.60099665 -9.5039928 1.73934925 -7.76904297 0.82763672 C-5.02421433 -0.45651579 -2.98585702 -0.36561515 0 0 Z M-20.0703125 25.5 C-28.59901586 29.82694491 -37.21953262 33.93405738 -45.875 38 C-47.44359757 38.73852796 -49.01211801 39.47721974 -50.58056641 40.21606445 C-53.80191392 41.73315072 -57.02378115 43.24912485 -60.24609375 44.76416016 C-64.77994633 46.89600754 -69.31202187 49.03161 -73.84375 51.16796875 C-85.03581937 56.44260447 -96.22906245 61.71443113 -107.4453125 66.9375 C-108.47016251 67.41489372 -108.47016251 67.41489372 -109.51571655 67.90193176 C-112.73783227 69.40252122 -115.96071462 70.90142125 -119.18505859 72.3972168 C-120.33055176 72.93000244 -121.47604492 73.46278809 -122.65625 74.01171875 C-123.64431641 74.47022217 -124.63238281 74.92872559 -125.65039062 75.40112305 C-130.13005703 77.53941279 -134.56020774 79.78010387 -139 82 C-139 103.78 -139 125.56 -139 148 C-131.38181696 145.47955364 -131.38181696 145.47955364 -124.19921875 142.3203125 C-123.15531982 141.81089111 -122.1114209 141.30146973 -121.03588867 140.77661133 C-119.93092041 140.23157959 -118.82595215 139.68654785 -117.6875 139.125 C-115.26120811 137.94234175 -112.83432013 136.76102297 -110.40625 135.58203125 C-109.47905403 135.1311338 -109.47905403 135.1311338 -108.53312683 134.67112732 C-102.28725075 131.6403036 -95.9917023 128.71983355 -89.6875 125.8125 C-76.87356902 119.89563745 -64.11669607 113.86233655 -51.3737793 107.79418945 C-37.96277208 101.42034654 -24.48536747 95.22401575 -11 89 C-11 66.89 -11 44.78 -11 22 C-14.35312642 22 -17.1398886 23.99167001 -20.0703125 25.5 Z " fill="#020000" transform="translate(472,145)"/>
<path d="M0 0 C4.15533221 1.63885371 8.16165271 3.5680151 12.1875 5.5 C13.41479328 6.08053569 14.64250731 6.66018261 15.87060547 7.23901367 C18.51923831 8.48932157 21.16511803 9.74522087 23.80908203 11.00537109 C28.08475047 13.04246048 32.36786987 15.06354088 36.65234375 17.08203125 C42.71826514 19.94084516 48.78194481 22.80434369 54.84375 25.671875 C62.89854147 29.48156002 70.95851995 33.28013321 79.02130127 37.07287598 C81.11636364 38.05843727 83.21127213 39.04432502 85.30615234 40.03027344 C91.82808363 43.0993616 98.35129214 46.16568617 104.87753296 49.2256012 C107.93422337 50.65900463 110.99030104 52.09371174 114.04632568 53.52853394 C115.48404921 54.20311517 116.92206486 54.87707425 118.3604126 55.55032349 C122.27954281 57.38481618 126.1933155 59.22980962 130.09838867 61.09405518 C131.39458608 61.71157534 132.69234609 62.32582366 133.99145508 62.93719482 C135.93176806 63.85267538 137.864893 64.78193377 139.796875 65.71484375 C141.48055176 66.5190979 141.48055176 66.5190979 143.19824219 67.33959961 C146.20366388 69.12069694 147.32426934 69.96943174 149 73 C149.29601149 75.97942022 149.42023679 78.74904794 149.40405273 81.72827148 C149.41091599 82.60839905 149.41777924 83.48852661 149.42485046 84.39532471 C149.4431486 87.3040786 149.43927661 90.21229466 149.43359375 93.12109375 C149.43815417 95.14364294 149.44345933 97.16619058 149.44947815 99.18873596 C149.45841523 103.42805272 149.45597937 107.66718115 149.44604492 111.90649414 C149.4345558 117.33851186 149.45476302 122.76987948 149.48396206 128.20181179 C149.50231067 132.3788516 149.50203423 136.55573525 149.49632454 140.73280525 C149.49617115 142.73547337 149.50222967 144.73815196 149.51461601 146.74078178 C149.52949843 149.54171364 149.51886913 152.34143979 149.50170898 155.14233398 C149.51621094 156.38231895 149.51621094 156.38231895 149.53100586 157.64735413 C149.48069204 161.57038949 149.26421442 163.56563418 147.17941284 166.99302673 C144.15008299 169.78266985 142.07749867 169.965424 138 170 C134.98754883 169.03466797 134.98754883 169.03466797 131.95703125 167.4921875 C130.24592163 166.64092285 130.24592163 166.64092285 128.50024414 165.77246094 C127.90084015 165.46401245 127.30143616 165.15556396 126.68386841 164.83776855 C124.11080943 163.51399914 121.51846619 162.23010384 118.92710876 160.94262695 C117.58399985 160.27462407 116.2419348 159.60451844 114.90089417 158.93237305 C108.51676005 155.73567373 102.05121279 152.728215 95.5625 149.75 C84.46754112 144.63004219 73.41430791 139.42625166 62.375 134.1875 C59.13677021 132.65093317 55.8985123 131.11442571 52.66015625 129.578125 C51.45684158 129.0072541 51.45684158 129.0072541 50.22921753 128.42485046 C42.48812019 124.75408839 34.73725627 121.10423806 26.98397827 117.45928955 C24.84244468 116.45159048 22.70195402 115.44170897 20.56176758 114.43115234 C14.64746743 111.6404411 8.72932725 108.86394088 2.765625 106.1796875 C1.41827271 105.56589233 1.41827271 105.56589233 0.04370117 104.93969727 C-1.53641145 104.22186001 -3.12174578 103.51533051 -4.71362305 102.82397461 C-9.03340983 100.84854779 -11.04772836 99.32501037 -13 95 C-13.42833125 92.08048859 -13.42031478 89.19681404 -13.40405273 86.25 C-13.41091599 85.37947998 -13.41777924 84.50895996 -13.42485046 83.61206055 C-13.44311724 80.74120671 -13.43928154 77.87089935 -13.43359375 75 C-13.43815523 73.00130028 -13.4434607 71.00260212 -13.44947815 69.00390625 C-13.45840873 64.81764346 -13.45598624 60.63157145 -13.44604492 56.4453125 C-13.43454856 51.08170184 -13.45477737 45.71874887 -13.48396206 40.35522461 C-13.5023096 36.22879863 -13.50203459 32.10253074 -13.49632454 27.97607422 C-13.49617118 25.99852576 -13.50222724 24.02096669 -13.51461601 22.04345703 C-13.52949882 19.27855154 -13.51886946 16.51486734 -13.50170898 13.75 C-13.51137695 12.93426514 -13.52104492 12.11853027 -13.53100586 11.27807617 C-13.47960878 7.32210616 -13.27829397 5.43566533 -11.09364319 2.015625 C-7.41579471 -1.52517096 -4.73230185 -1.25671087 0 0 Z M4 21 C4 43.11 4 65.22 4 88 C31.59772016 101.10427841 31.59772016 101.10427841 59.28466797 114.01757812 C68.50891584 118.28784112 77.6938585 122.63832378 86.87512207 127.00006104 C104.02314226 135.1467907 104.02314226 135.1467907 121.25 143.125 C122.13606934 143.53258545 123.02213867 143.9401709 123.93505859 144.36010742 C127.81068425 146.29188389 127.81068425 146.29188389 132 147 C132 125.22 132 103.44 132 81 C122.53057926 76.26528963 113.11339976 71.59185418 103.5 67.1875 C91.75251619 61.76889792 80.05624137 56.24735511 68.375 50.6875 C64.96366295 49.06484912 61.55215785 47.44255169 58.140625 45.8203125 C57.2975882 45.41942413 56.45455139 45.01853577 55.58596802 44.60549927 C47.50188611 40.76194209 39.41591842 36.92244292 31.32159424 33.10049438 C29.87963579 32.41910101 28.43817183 31.73666002 26.99725342 31.05307007 C25.00210461 30.10675174 23.00519097 29.16425751 21.0078125 28.22265625 C19.33162842 27.43000366 19.33162842 27.43000366 17.62158203 26.62133789 C13.13838107 24.61426376 8.56064853 22.82425941 4 21 Z " fill="#030100" transform="translate(47,146)"/>
<path d="M0 0 C17.16 0 34.32 0 52 0 C52 50.82 52 101.64 52 154 C34.84 154 17.68 154 0 154 C0 103.18 0 52.36 0 0 Z " fill="#C41D1D" transform="translate(230,256)"/>
<path d="M0 0 C3.69824535 2.05458075 4.7810498 3.3431494 6.125 7.375 C5.96821691 11.92170953 4.19725647 14.00297653 1 17 C-2.14916992 18.89599609 -2.14916992 18.89599609 -5.73046875 20.5234375 C-6.71240959 20.97778671 -6.71240959 20.97778671 -7.71418762 21.4413147 C-9.86583316 22.43323339 -12.02642077 23.40382962 -14.1875 24.375 C-15.71493038 25.07521601 -17.2416111 25.77706939 -18.76757812 26.48046875 C-21.93642675 27.93962279 -25.10837572 29.39169869 -28.28271484 30.83886719 C-34.84991588 33.8392205 -41.37663236 36.92471792 -47.90420532 40.0100708 C-51.43422496 41.67744287 -54.96727404 43.3383718 -58.5 45 C-59.91668096 45.6666363 -61.33334763 46.33330295 -62.75 47 C-71.25 51 -71.25 51 -73.37461853 51.99981689 C-74.79256045 52.66708608 -76.21049868 53.33436311 -77.62843323 54.00164795 C-81.15055841 55.65916023 -84.67274579 57.31654003 -88.19506836 58.97363281 C-94.80301293 62.08254238 -101.41031633 65.19279411 -108.01553345 68.30749512 C-111.11778724 69.7702729 -114.22037992 71.23233111 -117.32299805 72.69433594 C-118.79452137 73.38798762 -120.26588064 74.08198745 -121.73706055 74.77636719 C-126.15347426 76.86080421 -130.57431208 78.93532107 -135 81 C-135.92562744 81.43497803 -136.85125488 81.86995605 -137.80493164 82.31811523 C-138.59375732 82.68106689 -139.38258301 83.04401855 -140.1953125 83.41796875 C-141.16428467 83.86692505 -141.16428467 83.86692505 -142.15283203 84.32495117 C-145.69481244 85.61937039 -148.25726598 85.57092553 -152 85 C-155.23872519 82.32805171 -155.88915865 80.62071155 -156.625 76.5 C-155.92045452 72.55454529 -154.86037804 71.63135425 -151.78820801 69.22940063 C-148.78819966 67.16688209 -145.60015813 65.64988251 -142.296875 64.13671875 C-141.55469727 63.7879216 -140.81251953 63.43912445 -140.04785156 63.07975769 C-137.61904691 61.9406424 -135.18462701 60.81411008 -132.75 59.6875 C-131.03768043 58.8870974 -129.32577199 58.08581475 -127.61425781 57.28369141 C-124.10947238 55.64253636 -120.60255912 54.00606933 -117.09375 52.37353516 C-112.43143198 50.20322524 -107.77639784 48.0178214 -103.125 45.82421875 C-102.42595551 45.4945813 -101.72691101 45.16494385 -101.00668335 44.82531738 C-99.61371021 44.16839482 -98.22075553 43.5114331 -96.82781982 42.85443115 C-93.33696431 41.2089311 -89.84426319 39.56736023 -86.3515625 37.92578125 C-84.95995927 37.27165067 -83.56835771 36.61751656 -82.17675781 35.96337891 C-81.48811646 35.63968323 -80.7994751 35.31598755 -80.08996582 34.98248291 C-73.76771441 32.01042284 -67.44626028 29.03666741 -61.125 26.0625 C-60.43724487 25.7389151 -59.74948975 25.4153302 -59.04089355 25.0819397 C-47.35655358 19.58402147 -35.67712877 14.0757163 -24 8.5625 C-23.20466858 8.18707062 -22.40933716 7.81164124 -21.58990479 7.42483521 C-19.35147843 6.36812283 -17.11320876 5.31107941 -14.875 4.25390625 C-14.20588593 3.93804565 -13.53677185 3.62218506 -12.84738159 3.29675293 C-4.86148536 -0.47661621 -4.86148536 -0.47661621 0 0 Z " fill="#030000" transform="translate(472,273)"/>
<path d="M0 0 C4.15365285 1.6434423 8.16149217 3.56793805 12.1875 5.5 C13.41479328 6.08053569 14.64250731 6.66018261 15.87060547 7.23901367 C18.51923831 8.48932157 21.16511803 9.74522087 23.80908203 11.00537109 C28.08475047 13.04246048 32.36786987 15.06354088 36.65234375 17.08203125 C42.71826514 19.94084516 48.78194481 22.80434369 54.84375 25.671875 C62.89854147 29.48156002 70.95851995 33.28013321 79.02130127 37.07287598 C81.11636364 38.05843727 83.21127213 39.04432502 85.30615234 40.03027344 C91.82808363 43.0993616 98.35129214 46.16568617 104.87753296 49.2256012 C107.93422337 50.65900463 110.99030104 52.09371174 114.04632568 53.52853394 C115.48404921 54.20311517 116.92206486 54.87707425 118.3604126 55.55032349 C122.27954281 57.38481618 126.1933155 59.22980962 130.09838867 61.09405518 C131.39458608 61.71157534 132.69234609 62.32582366 133.99145508 62.93719482 C135.93176806 63.85267538 137.864893 64.78193377 139.796875 65.71484375 C141.48055176 66.5190979 141.48055176 66.5190979 143.19824219 67.33959961 C146.00120038 69.00071138 147.38340551 70.20340198 149 73 C149.5 75.9375 149.5 75.9375 149 79 C146.9375 81.875 146.9375 81.875 144 84 C138.45688762 84.56762008 134.51301469 83.27710782 129.63671875 80.84375 C128.94043869 80.51011948 128.24415863 80.17648895 127.52677917 79.83274841 C125.24084366 78.73414564 122.96447579 77.61703774 120.6875 76.5 C119.07573578 75.72193027 117.46325578 74.94534167 115.85009766 74.17016602 C112.5245154 72.57087741 109.2019459 70.96556664 105.88134766 69.35595703 C99.26707542 66.1559026 92.61632406 63.03441147 85.96304321 59.91650391 C82.45025859 58.26949304 78.94016047 56.61677434 75.4296875 54.96484375 C74.02572954 54.30449626 72.62175819 53.64417723 71.21777344 52.98388672 C66.98086212 50.99110736 62.74428954 48.99760866 58.5078125 47.00390625 C57.80489075 46.67311569 57.10196899 46.34232513 56.37774658 46.00151062 C52.85396834 44.34321006 49.33025848 42.68476437 45.80664062 41.02612305 C39.19176469 37.91254749 32.57626661 34.8003142 25.9586792 31.69250488 C22.84624305 30.23072072 19.73414413 28.76821942 16.62207031 27.30566406 C15.14404835 26.61129564 13.66586277 25.91727534 12.1875 25.22363281 C-10.56817704 14.54645163 -10.56817704 14.54645163 -13 10 C-13.07481382 5.73561227 -12.64839572 3.76281849 -9.875 0.5 C-6.19261827 -1.42124264 -3.86535973 -1.07161877 0 0 Z " fill="#030000" transform="translate(47,274)"/>
<path d="M0 0 C43.21615154 8.64323031 83.39797166 30.70501897 108.7265625 67.47265625 C111.9914203 72.39449075 114.57484355 77.61733569 117 83 C112.70277593 81.51157602 109.25110104 79.21579111 105.5625 76.625 C80.05942364 59.2668852 51.00487086 46.15458161 21.94042969 36.03417969 C18.19079816 34.7153953 14.47047418 33.32168109 10.75244141 31.91650391 C7.22898564 30.74326877 3.60277295 29.90069324 0 29 C0 19.43 0 9.86 0 0 Z " fill="#DAC099" transform="translate(119,19)"/>
<path d="M0 0 C0 9.57 0 19.14 0 29 C-4.145625 30.175625 -4.145625 30.175625 -8.375 31.375 C-46.45799301 42.64458702 -82.40489086 60.41537382 -115 83 C-115.66 82.67 -116.32 82.34 -117 82 C-96.5033119 41.86065247 -59.81151453 17.66826481 -17.86523438 3.89794922 C-5.4274062 0 -5.4274062 0 0 0 Z " fill="#DBC099" transform="translate(393,19)"/>
<path d="M0 0 C2.8013377 0.9079422 5.38003076 2.16698002 8.01171875 3.48046875 C8.7687056 3.84445267 9.52569244 4.20843658 10.30561829 4.58345032 C12.77236292 5.77260051 15.2296481 6.98009244 17.6875 8.1875 C19.41267286 9.02236131 21.13859293 9.85568024 22.86523438 10.6875 C26.32044758 12.3526586 29.77308131 14.02298853 33.22412109 15.69677734 C39.44786954 18.70751315 45.71891248 21.61085996 52 24.5 C63.40482288 29.77066292 74.76944045 35.12419512 86.125 40.5 C86.94500488 40.88776611 87.76500977 41.27553223 88.60986328 41.67504883 C93.11307148 43.80516513 97.61226235 45.94331132 102.10510254 48.09521484 C103.821896 48.91495801 105.5430326 49.72558996 107.26464844 50.53515625 C108.16473633 50.96699219 109.06482422 51.39882813 109.9921875 51.84375 C110.73581543 52.19630859 111.47944336 52.54886719 112.24560547 52.91210938 C114 54 114 54 116 57 C116.22032178 60.11840052 115.86131897 62.99656955 115 66 C112.38987621 68.46097386 110.79163315 68.92837203 107.25048828 69.2487793 C103.28781281 68.94549206 100.73093417 67.73606971 97.1796875 65.95703125 C96.53258316 65.63757538 95.88547882 65.31811951 95.21876526 64.98898315 C93.82656656 64.30027706 92.43696942 63.60629156 91.04977417 62.90756226 C88.08140189 61.4129002 85.1002408 59.94464606 82.11930847 58.47523499 C80.59560752 57.72411968 79.07250793 56.97178325 77.55000305 56.21824646 C70.89569959 52.92957256 64.18288286 49.7855587 57.4375 46.6875 C45.58699796 41.22503619 33.78747 35.65944077 22 30.0625 C21.14115204 29.65526703 20.28230408 29.24803406 19.39743042 28.82846069 C14.61983454 26.56255976 9.84735959 24.28648589 5.08154297 21.99591064 C3.14322951 21.06852791 1.19936098 20.15397571 -0.74609375 19.24169922 C-1.81988281 18.72752441 -2.89367187 18.21334961 -4 17.68359375 C-4.9075 17.2548999 -5.815 16.82620605 -6.75 16.38452148 C-9.24967324 14.84636535 -10.53610249 13.53675804 -12 11 C-11.93108944 7.14100853 -11.52415508 4.78623262 -9.375 1.5625 C-6.0384578 -0.63259355 -3.96501356 -0.32440792 0 0 Z " fill="#030100" transform="translate(63,324)"/>
<path d="M0 0 C3.38677089 2.45000447 4.78698584 3.86392446 5.5625 8 C4.85094311 11.79497007 3.66403313 13.20476925 1 16 C-1.50451289 17.44703991 -3.88645614 18.68013684 -6.5078125 19.86328125 C-7.25282013 20.2120784 -7.99782776 20.56087555 -8.76541138 20.92024231 C-11.21323746 22.06296803 -13.66893784 23.18760006 -16.125 24.3125 C-17.84661941 25.11249942 -19.56764075 25.91378706 -21.28808594 26.71630859 C-24.81393253 28.35914443 -28.34269566 29.99544543 -31.87402344 31.62646484 C-38.66078217 34.76397969 -45.42119826 37.9568069 -52.18215942 41.14941406 C-55.63132191 42.77669348 -59.0833585 44.39785133 -62.53515625 46.01953125 C-67.70825753 48.45056367 -72.87954463 50.88540179 -78.04898071 53.32421875 C-81.17532283 54.79914773 -84.30207346 56.27320963 -87.42883301 57.74725342 C-88.9157678 58.44853086 -90.40250808 59.15022089 -91.88903809 59.85235596 C-93.95024141 60.8258622 -96.01215536 61.79784839 -98.07421875 62.76953125 C-99.24557373 63.32229736 -100.41692871 63.87506348 -101.6237793 64.44458008 C-102.73793213 64.95786865 -103.85208496 65.47115723 -105 66 C-105.61251617 66.28612152 -106.22503235 66.57224304 -106.85610962 66.86703491 C-111.41202791 68.92717238 -114.12664618 69.47120115 -119 68 C-121.83686994 65.45409108 -122.82129375 63.76356309 -123.6875 60.0625 C-122.67093303 55.53415621 -119.66008579 53.54684737 -116 51 C-112.07687337 48.85947341 -108.02245139 47.0583844 -103.9375 45.25 C-102.07388017 44.40781931 -100.21243561 43.5609501 -98.35107422 42.71379089 C-97.02025561 42.10823589 -95.68886092 41.50394557 -94.35693359 40.90083313 C-86.78879373 37.46839758 -79.28546594 33.90096512 -71.78112793 30.33172607 C-67.75530116 28.41725764 -63.72716082 26.50766911 -59.69921875 24.59765625 C-58.49883469 24.02827332 -58.49883469 24.02827332 -57.27420044 23.4473877 C-49.32193423 19.67625324 -41.36366639 15.91790852 -33.40142822 12.1678772 C-31.946134 11.48235671 -30.49101003 10.79647464 -29.03607178 10.11019897 C-24.69551935 8.0630356 -20.3507053 6.02550574 -16 4 C-15.07364746 3.56792236 -14.14729492 3.13584473 -13.19287109 2.69067383 C-12.3983252 2.3273999 -11.6037793 1.96412598 -10.78515625 1.58984375 C-10.13039307 1.28941162 -9.47562988 0.98897949 -8.80102539 0.67944336 C-5.65798711 -0.50627923 -3.28212146 -0.56805948 0 0 Z " fill="#030000" transform="translate(456,324)"/>
<path d="M0 0 C17.16 0 34.32 0 52 0 C52 11.22 52 22.44 52 34 C34.84 34 17.68 34 0 34 C0 22.78 0 11.56 0 0 Z " fill="#C41D1D" transform="translate(230,461)"/>
<path d="M0 0 C17.16 0 34.32 0 52 0 C52 11.22 52 22.44 52 34 C34.84 34 17.68 34 0 34 C0 22.78 0 11.56 0 0 Z " fill="#C31D1D" transform="translate(230,171)"/>
<path d="M0 0 C17.16 0 34.32 0 52 0 C52 5.61 52 11.22 52 17 C34.84 17 17.68 17 0 17 C0 11.39 0 5.78 0 0 Z " fill="#FFDB00" transform="translate(230,427)"/>
<path d="M0 0 C17.16 0 34.32 0 52 0 C52 5.61 52 11.22 52 17 C34.84 17 17.68 17 0 17 C0 11.39 0 5.78 0 0 Z " fill="#FFDB00" transform="translate(230,222)"/>
<path d="M0 0 C0.71414063 -0.04898438 1.42828125 -0.09796875 2.1640625 -0.1484375 C5.51386706 0.64462577 7.206129 2.8602476 9.375 5.375 C9.9333252 6.02065918 10.49165039 6.66631836 11.06689453 7.33154297 C12.94180546 9.53675949 14.78627966 11.76454333 16.625 14 C17.26179687 14.763125 17.89859375 15.52625 18.5546875 16.3125 C19.16054688 17.04726562 19.76640625 17.78203125 20.390625 18.5390625 C21.21481934 19.53607178 21.21481934 19.53607178 22.05566406 20.55322266 C23.375 22.375 23.375 22.375 24.375 25.375 C15.43573242 29.94666489 6.43109222 34.19366799 -2.8125 38.125 C-5.45698524 39.25880516 -8.09971068 40.39667914 -10.7421875 41.53515625 C-11.44307999 41.83686234 -12.14397247 42.13856842 -12.86610413 42.44941711 C-22.0840584 46.42455563 -31.25877221 50.49784136 -40.4375 54.5625 C-44.13916814 56.20087073 -47.84101676 57.83883324 -51.54296875 59.4765625 C-52.46580154 59.8848378 -53.38863434 60.2931131 -54.33943176 60.71376038 C-63.96874411 64.97219698 -73.60816865 69.2074993 -83.25 73.4375 C-84.07978363 73.80153931 -84.90956726 74.16557861 -85.76449585 74.54064941 C-89.12122742 76.01319156 -92.47801701 77.48560131 -95.83491516 78.95776367 C-102.24509649 81.76907766 -108.65401267 84.58326436 -115.0625 87.3984375 C-116.95361131 88.22908978 -118.84472457 89.05973762 -120.73583984 89.89038086 C-123.46484506 91.08906109 -126.19381811 92.28781417 -128.92266846 93.48684692 C-131.41967388 94.58396615 -133.91685001 95.68069595 -136.4140625 96.77734375 C-137.14447754 97.09839081 -137.87489258 97.41943787 -138.62744141 97.75021362 C-139.98505732 98.34625221 -141.34413563 98.93897483 -142.70489502 99.52780151 C-143.99562001 100.09730176 -145.27700727 100.68840416 -146.54852295 101.29959106 C-151.11367898 103.44055398 -151.11367898 103.44055398 -154.0625 103.0625 C-154.578125 102.835625 -155.09375 102.60875 -155.625 102.375 C-134.12456076 92.67253209 -112.54053876 83.16589407 -90.93457031 73.70117188 C-83.21571116 70.31977826 -75.49835517 66.93496066 -67.78170776 63.54852295 C-66.09776861 62.80953756 -64.41378849 62.07064553 -62.72976685 61.33184814 C-52.7833218 56.96781635 -42.84277458 52.59073047 -32.91015625 48.1953125 C-31.93721619 47.7648613 -30.96427612 47.3344101 -29.96185303 46.89091492 C-25.2681543 44.81403041 -20.57515694 42.73558468 -15.88330078 40.65454102 C9.5704369 29.375 9.5704369 29.375 12.375 29.375 C7.79098094 22.88996127 3.03540026 16.55298873 -1.875 10.3125 C-2.63538574 9.33011353 -2.63538574 9.33011353 -3.41113281 8.32788086 C-3.89936523 7.71307861 -4.38759766 7.09827637 -4.890625 6.46484375 C-5.32149414 5.91691162 -5.75236328 5.36897949 -6.19628906 4.80444336 C-7.84940964 3.15047531 -9.49688079 2.31379258 -11.625 1.375 C-7.76370249 0.71775787 -3.91203452 0.22279594 0 0 Z " fill="#D8BD97" transform="translate(444.625,52.625)"/>
<path d="M0 0 C0.33 0 0.66 0 1 0 C1 5.28 1 10.56 1 16 C12.22 16 23.44 16 35 16 C35 10.72 35 5.44 35 0 C40.61 0 46.22 0 52 0 C52 5.61 52 11.22 52 17 C34.84 17 17.68 17 0 17 C0 11.39 0 5.78 0 0 Z " fill="#E9B406" transform="translate(230,427)"/>
<path d="M0 0 C0.33 0 0.66 0 1 0 C1 5.28 1 10.56 1 16 C12.22 16 23.44 16 35 16 C35 10.72 35 5.44 35 0 C40.61 0 46.22 0 52 0 C52 5.61 52 11.22 52 17 C34.84 17 17.68 17 0 17 C0 11.39 0 5.78 0 0 Z " fill="#F1BA06" transform="translate(230,222)"/>
</svg>
